<svg width="12" height="9" viewBox="0 0 12 9" fill="none" xmlns="http://www.w3.org/2000/svg">
<path d="M0.519475 4.15619H10.2265L7.91029 1.79817C7.70737 1.59173 7.70737 1.25684 7.91029 1.05043C8.11321 0.843867 8.44219 0.843867 8.6448 1.05043L11.8478 4.31105C12.0507 4.51749 12.0507 4.85241 11.8478 5.05879L8.6448 8.31956C8.54337 8.42288 8.41045 8.47446 8.27755 8.47446C8.14465 8.47446 8.01172 8.42288 7.91029 8.31956C7.70737 8.11312 7.70737 7.77823 7.91029 7.57185L10.2265 5.21371H0.519475C0.232618 5.21371 0 4.97695 0 4.68494C0 4.39292 0.232588 4.15619 0.519475 4.15619Z" fill="black"/>
</svg>
